<svg xmlns="http://www.w3.org/2000/svg" width="32" height="32" fill="#000000" viewBox="0 0 256 256"><path d="M224,48H32A16,16,0,0,0,16,64V192a16,16,0,0,0,16,16H224a16,16,0,0,0,16-16V64A16,16,0,0,0,224,48Zm0,144H32V64H224V192ZM56,96a8,8,0,0,1,8-8H80a8,8,0,0,1,0,16H64A8,8,0,0,1,56,96Zm48,0a8,8,0,0,1,8-8h16a8,8,0,0,1,0,16H112A8,8,0,0,1,104,96Zm48,0a8,8,0,0,1,8-8h16a8,8,0,0,1,0,16H160A8,8,0,0,1,152,96Zm-96,40a8,8,0,0,1,8-8H80a8,8,0,0,1,0,16H64A8,8,0,0,1,56,136Zm48,0a8,8,0,0,1,8-8h16a8,8,0,0,1,0,16H112A8,8,0,0,1,104,136Zm48,0a8,8,0,0,1,8-8h16a8,8,0,0,1,0,16H160A8,8,0,0,1,152,136Zm40-40a8,8,0,0,1,8-8h0a8,8,0,0,1,0,16h0A8,8,0,0,1,192,96Zm0,40a8,8,0,0,1,8-8h0a8,8,0,0,1,0,16h0A8,8,0,0,1,192,136ZM88,168a8,8,0,0,1,8-8h64a8,8,0,0,1,0,16H96A8,8,0,0,1,88,168Z"></path></svg>
